<?xml version="1.0" encoding="utf-8"?>
<!-- Generator: Adobe Illustrator 19.2.1, SVG Export Plug-In . SVG Version: 6.00 Build 0)  -->
<svg version="1.1" id="layer" xmlns="http://www.w3.org/2000/svg" xmlns:xlink="http://www.w3.org/1999/xlink" x="0px" y="0px"
	 viewBox="0 0 652 652" style="enable-background:new 0 0 652 652;" xml:space="preserve">
<style type="text/css">
	.st0{fill:#1A3440;}
	.st1{fill:#B79C64;}
	.st2{fill:#FFFFFF;}
</style>
<g>
	<polygon class="st0" points="573.7,77.3 79,77.3 76.3,77.3 76.3,80 76.3,574.6 76.3,577.3 79,577.3 573.7,577.3 576.3,577.3 
		576.3,574.6 576.3,80 576.3,77.3 	"/>
	<rect x="305.9" y="135.7" class="st1" width="38" height="38"/>
	<rect x="305.9" y="187.4" class="st1" width="38" height="38"/>
	<rect x="357.6" y="187.4" class="st1" width="38" height="38"/>
	<rect x="254.3" y="187.4" class="st1" width="38" height="38"/>
	<rect x="357.6" y="239" class="st1" width="38" height="38"/>
	<rect x="409.2" y="239" class="st1" width="38" height="38"/>
	<rect x="409.2" y="290.6" class="st1" width="38" height="38"/>
	<rect x="460.9" y="290.6" class="st1" width="38" height="38"/>
	<rect x="460.9" y="342.3" class="st1" width="38" height="38"/>
	<rect x="151" y="290.6" class="st1" width="38" height="38"/>
	<rect x="151" y="342.3" class="st1" width="38" height="38"/>
	<rect x="202.7" y="290.6" class="st1" width="38" height="38"/>
	<rect x="254.3" y="239" class="st1" width="38" height="38"/>
	<rect x="202.7" y="239" class="st1" width="38" height="38"/>
	<path class="st2" d="M190.4,417h-21.7l-38,95.1h19l8.2-21.7h43.5l8.2,21.7h19L190.4,417z M163.3,474.1l16.3-38l16.3,38H163.3z"/>
	<polygon class="st2" points="356.2,472.7 398.4,472.7 398.4,455.1 356.2,455.1 356.2,434.7 413.3,434.7 413.3,417 338.6,417 
		338.6,512.1 338.6,512.1 416,512.1 416,494.5 356.2,494.5 	"/>
	<polygon class="st2" points="327.7,512.1 283.9,455.4 326.3,417 300.5,417 255.7,457.8 255.7,417 238,417 238,512.1 255.7,512.1 
		255.7,480.9 269.8,468.1 304.6,512.1 	"/>
	<g>
		<path class="st2" d="M500.3,512.1h20.4l-21.1-36.3c11.2-4.6,19-15.5,19-28.3c0-16.4-13-29.8-29.2-30.5V417h-61.1v95.1h17.7v-34
			h33.4L500.3,512.1z M445.9,434.7h42.2c7.1,0,12.9,5.8,12.9,12.9c0,7.1-5.8,12.9-12.9,12.9h-42.1V434.7z"/>
	</g>
</g>
</svg>
